<svg width="1026" height="311" viewBox="0 0 1026 311" fill="none" xmlns="http://www.w3.org/2000/svg">
<path d="M168 0C260.784 0 336 75.2162 336 168C336 228.025 304.519 280.695 257.169 310.406C260.429 272.459 192.228 232.332 218 227.5C261.5 219.344 271.5 165.709 259 162.5C222 153 254 109.5 183 92C157.273 85.6588 176 56.0001 160 49.5C126.86 54.8873 14.7295 124.555 47.2666 284.818C18.0075 254.585 0 213.396 0 168C0 75.2162 75.2162 0 168 0Z" fill="#6ECBF5"/>
<path d="M168 0C260.784 0 336 75.2162 336 168C336 228.025 304.519 280.695 257.169 310.406C260.429 272.459 192.228 232.332 218 227.5C261.5 219.344 271.5 165.709 259 162.5C222 153 254 109.5 183 92C157.273 85.6588 176 56.0001 160 49.5C126.86 54.8873 14.7295 124.555 47.2666 284.818C18.0075 254.585 0 213.396 0 168C0 75.2162 75.2162 0 168 0Z" fill="url(#paint0_linear_202_18)" fill-opacity="0.74"/>
<path d="M168 0C260.784 0 336 75.2162 336 168C336 228.025 304.519 280.695 257.169 310.406C260.429 272.459 192.228 232.332 218 227.5C261.5 219.344 271.5 165.709 259 162.5C222 153 254 109.5 183 92C157.273 85.6588 176 56.0001 160 49.5C126.86 54.8873 14.7295 124.555 47.2666 284.818C18.0075 254.585 0 213.396 0 168C0 75.2162 75.2162 0 168 0Z" fill="url(#paint1_linear_202_18)" fill-opacity="0.4"/>
<path d="M168 0C260.784 0 336 75.2162 336 168C336 228.025 304.519 280.695 257.169 310.406C260.429 272.459 192.228 232.332 218 227.5C261.5 219.344 271.5 165.709 259 162.5C222 153 254 109.5 183 92C157.273 85.6588 176 56.0001 160 49.5C126.86 54.8873 14.7295 124.555 47.2666 284.818C18.0075 254.585 0 213.396 0 168C0 75.2162 75.2162 0 168 0Z" fill="url(#paint2_linear_202_18)" fill-opacity="0.4"/>
<path d="M168 0C260.784 0 336 75.2162 336 168C336 228.025 304.519 280.695 257.169 310.406C260.429 272.459 192.228 232.332 218 227.5C261.5 219.344 271.5 165.709 259 162.5C222 153 254 109.5 183 92C157.273 85.6588 176 56.0001 160 49.5C126.86 54.8873 14.7295 124.555 47.2666 284.818C18.0075 254.585 0 213.396 0 168C0 75.2162 75.2162 0 168 0Z" fill="url(#paint3_linear_202_18)" fill-opacity="0.13"/>
<path d="M168 0C260.784 0 336 75.2162 336 168C336 228.025 304.519 280.695 257.169 310.406C260.429 272.459 192.228 232.332 218 227.5C261.5 219.344 271.5 165.709 259 162.5C222 153 254 109.5 183 92C157.273 85.6588 176 56.0001 160 49.5C126.86 54.8873 14.7295 124.555 47.2666 284.818C18.0075 254.585 0 213.396 0 168C0 75.2162 75.2162 0 168 0Z" fill="url(#paint4_linear_202_18)" fill-opacity="0.57"/>
<path d="M397.916 235V93.9091H423.475V158.737H425.197L480.242 93.9091H511.45L456.888 157.221L511.933 235H481.207L439.114 174.513L423.475 192.976V235H397.916ZM534.736 235V129.182H559.675V235H534.736ZM547.274 114.163C543.324 114.163 539.926 112.854 537.078 110.237C534.231 107.573 532.807 104.381 532.807 100.661C532.807 96.8944 534.231 93.7024 537.078 91.0845C539.926 88.4207 543.324 87.0888 547.274 87.0888C551.27 87.0888 554.669 88.4207 557.47 91.0845C560.318 93.7024 561.741 96.8944 561.741 100.661C561.741 104.381 560.318 107.573 557.47 110.237C554.669 112.854 551.27 114.163 547.274 114.163ZM585.32 235V129.182H609.501V146.818H610.603C612.532 140.71 615.839 136.002 620.524 132.695C625.254 129.343 630.651 127.666 636.713 127.666C638.091 127.666 639.63 127.735 641.329 127.873C643.074 127.965 644.521 128.125 645.669 128.355V151.296C644.613 150.929 642.936 150.607 640.64 150.332C638.39 150.01 636.208 149.849 634.095 149.849C629.548 149.849 625.461 150.837 621.833 152.812C618.25 154.741 615.426 157.428 613.359 160.872C611.292 164.317 610.259 168.29 610.259 172.79V235H585.32ZM690.794 237.136C684.088 237.136 678.048 235.942 672.675 233.553C667.347 231.119 663.122 227.537 659.999 222.806C656.922 218.076 655.383 212.243 655.383 205.308C655.383 199.337 656.485 194.4 658.69 190.496C660.894 186.592 663.903 183.469 667.715 181.126C671.527 178.784 675.821 177.016 680.597 175.822C685.42 174.582 690.403 173.686 695.547 173.135C701.747 172.492 706.776 171.918 710.634 171.413C714.492 170.862 717.294 170.035 719.039 168.933C720.83 167.784 721.726 166.016 721.726 163.628V163.214C721.726 158.025 720.187 154.006 717.11 151.158C714.033 148.311 709.601 146.887 703.814 146.887C697.706 146.887 692.86 148.219 689.278 150.883C685.741 153.547 683.353 156.693 682.113 160.321L658.828 157.014C660.665 150.584 663.696 145.211 667.921 140.893C672.147 136.53 677.314 133.269 683.422 131.111C689.53 128.906 696.282 127.804 703.676 127.804C708.774 127.804 713.849 128.401 718.901 129.595C723.954 130.789 728.569 132.764 732.749 135.52C736.928 138.23 740.281 141.927 742.807 146.612C745.379 151.296 746.665 157.152 746.665 164.179V235H722.691V220.464H721.864C720.348 223.403 718.213 226.159 715.457 228.731C712.747 231.257 709.325 233.301 705.192 234.862C701.104 236.378 696.305 237.136 690.794 237.136ZM697.269 218.81C702.276 218.81 706.616 217.823 710.29 215.848C713.964 213.827 716.789 211.163 718.764 207.857C720.785 204.55 721.795 200.944 721.795 197.04V184.571C721.014 185.214 719.682 185.811 717.799 186.362C715.962 186.913 713.895 187.396 711.599 187.809C709.302 188.222 707.029 188.59 704.779 188.911C702.528 189.233 700.576 189.508 698.923 189.738C695.203 190.243 691.873 191.07 688.933 192.218C685.994 193.366 683.675 194.974 681.975 197.04C680.276 199.061 679.426 201.679 679.426 204.894C679.426 209.487 681.103 212.955 684.455 215.297C687.808 217.639 692.079 218.81 697.269 218.81ZM787.105 236.516C782.925 236.516 779.343 235.046 776.357 232.107C773.372 229.167 771.902 225.585 771.948 221.359C771.902 217.226 773.372 213.689 776.357 210.75C779.343 207.811 782.925 206.341 787.105 206.341C791.146 206.341 794.66 207.811 797.645 210.75C800.676 213.689 802.215 217.226 802.261 221.359C802.215 224.161 801.48 226.71 800.056 229.006C798.678 231.303 796.841 233.14 794.545 234.518C792.294 235.85 789.814 236.516 787.105 236.516ZM828.009 235V129.182H852.948V235H828.009ZM840.548 114.163C836.598 114.163 833.199 112.854 830.352 110.237C827.504 107.573 826.08 104.381 826.08 100.661C826.08 96.8944 827.504 93.7024 830.352 91.0845C833.199 88.4207 836.598 87.0888 840.548 87.0888C844.543 87.0888 847.942 88.4207 850.744 91.0845C853.591 93.7024 855.015 96.8944 855.015 100.661C855.015 104.381 853.591 107.573 850.744 110.237C847.942 112.854 844.543 114.163 840.548 114.163ZM917.862 236.86C909.549 236.86 902.108 234.724 895.541 230.453C888.973 226.182 883.783 219.982 879.971 211.852C876.159 203.723 874.253 193.848 874.253 182.229C874.253 170.471 876.182 160.551 880.04 152.467C883.944 144.338 889.203 138.207 895.816 134.073C902.43 129.894 909.801 127.804 917.931 127.804C924.131 127.804 929.229 128.86 933.225 130.973C937.22 133.04 940.389 135.543 942.732 138.482C945.074 141.376 946.888 144.108 948.174 146.68H949.208V93.9091H974.215V235H949.69V218.328H948.174C946.888 220.9 945.028 223.633 942.594 226.526C940.16 229.374 936.945 231.808 932.949 233.829C928.953 235.85 923.924 236.86 917.862 236.86ZM924.82 216.399C930.102 216.399 934.602 214.975 938.323 212.128C942.043 209.234 944.867 205.216 946.796 200.072C948.725 194.928 949.69 188.934 949.69 182.091C949.69 175.248 948.725 169.3 946.796 164.248C944.913 159.196 942.112 155.269 938.392 152.467C934.717 149.666 930.193 148.265 924.82 148.265C919.262 148.265 914.624 149.712 910.904 152.605C907.183 155.499 904.382 159.494 902.499 164.592C900.616 169.69 899.674 175.523 899.674 182.091C899.674 188.705 900.616 194.606 902.499 199.796C904.428 204.94 907.252 209.005 910.972 211.99C914.739 214.929 919.354 216.399 924.82 216.399Z" fill="#6ECBF5"/>
<path d="M397.916 235V93.9091H423.475V158.737H425.197L480.242 93.9091H511.45L456.888 157.221L511.933 235H481.207L439.114 174.513L423.475 192.976V235H397.916ZM534.736 235V129.182H559.675V235H534.736ZM547.274 114.163C543.324 114.163 539.926 112.854 537.078 110.237C534.231 107.573 532.807 104.381 532.807 100.661C532.807 96.8944 534.231 93.7024 537.078 91.0845C539.926 88.4207 543.324 87.0888 547.274 87.0888C551.27 87.0888 554.669 88.4207 557.47 91.0845C560.318 93.7024 561.741 96.8944 561.741 100.661C561.741 104.381 560.318 107.573 557.47 110.237C554.669 112.854 551.27 114.163 547.274 114.163ZM585.32 235V129.182H609.501V146.818H610.603C612.532 140.71 615.839 136.002 620.524 132.695C625.254 129.343 630.651 127.666 636.713 127.666C638.091 127.666 639.63 127.735 641.329 127.873C643.074 127.965 644.521 128.125 645.669 128.355V151.296C644.613 150.929 642.936 150.607 640.64 150.332C638.39 150.01 636.208 149.849 634.095 149.849C629.548 149.849 625.461 150.837 621.833 152.812C618.25 154.741 615.426 157.428 613.359 160.872C611.292 164.317 610.259 168.29 610.259 172.79V235H585.32ZM690.794 237.136C684.088 237.136 678.048 235.942 672.675 233.553C667.347 231.119 663.122 227.537 659.999 222.806C656.922 218.076 655.383 212.243 655.383 205.308C655.383 199.337 656.485 194.4 658.69 190.496C660.894 186.592 663.903 183.469 667.715 181.126C671.527 178.784 675.821 177.016 680.597 175.822C685.42 174.582 690.403 173.686 695.547 173.135C701.747 172.492 706.776 171.918 710.634 171.413C714.492 170.862 717.294 170.035 719.039 168.933C720.83 167.784 721.726 166.016 721.726 163.628V163.214C721.726 158.025 720.187 154.006 717.11 151.158C714.033 148.311 709.601 146.887 703.814 146.887C697.706 146.887 692.86 148.219 689.278 150.883C685.741 153.547 683.353 156.693 682.113 160.321L658.828 157.014C660.665 150.584 663.696 145.211 667.921 140.893C672.147 136.53 677.314 133.269 683.422 131.111C689.53 128.906 696.282 127.804 703.676 127.804C708.774 127.804 713.849 128.401 718.901 129.595C723.954 130.789 728.569 132.764 732.749 135.52C736.928 138.23 740.281 141.927 742.807 146.612C745.379 151.296 746.665 157.152 746.665 164.179V235H722.691V220.464H721.864C720.348 223.403 718.213 226.159 715.457 228.731C712.747 231.257 709.325 233.301 705.192 234.862C701.104 236.378 696.305 237.136 690.794 237.136ZM697.269 218.81C702.276 218.81 706.616 217.823 710.29 215.848C713.964 213.827 716.789 211.163 718.764 207.857C720.785 204.55 721.795 200.944 721.795 197.04V184.571C721.014 185.214 719.682 185.811 717.799 186.362C715.962 186.913 713.895 187.396 711.599 187.809C709.302 188.222 707.029 188.59 704.779 188.911C702.528 189.233 700.576 189.508 698.923 189.738C695.203 190.243 691.873 191.07 688.933 192.218C685.994 193.366 683.675 194.974 681.975 197.04C680.276 199.061 679.426 201.679 679.426 204.894C679.426 209.487 681.103 212.955 684.455 215.297C687.808 217.639 692.079 218.81 697.269 218.81ZM787.105 236.516C782.925 236.516 779.343 235.046 776.357 232.107C773.372 229.167 771.902 225.585 771.948 221.359C771.902 217.226 773.372 213.689 776.357 210.75C779.343 207.811 782.925 206.341 787.105 206.341C791.146 206.341 794.66 207.811 797.645 210.75C800.676 213.689 802.215 217.226 802.261 221.359C802.215 224.161 801.48 226.71 800.056 229.006C798.678 231.303 796.841 233.14 794.545 234.518C792.294 235.85 789.814 236.516 787.105 236.516ZM828.009 235V129.182H852.948V235H828.009ZM840.548 114.163C836.598 114.163 833.199 112.854 830.352 110.237C827.504 107.573 826.08 104.381 826.08 100.661C826.08 96.8944 827.504 93.7024 830.352 91.0845C833.199 88.4207 836.598 87.0888 840.548 87.0888C844.543 87.0888 847.942 88.4207 850.744 91.0845C853.591 93.7024 855.015 96.8944 855.015 100.661C855.015 104.381 853.591 107.573 850.744 110.237C847.942 112.854 844.543 114.163 840.548 114.163ZM917.862 236.86C909.549 236.86 902.108 234.724 895.541 230.453C888.973 226.182 883.783 219.982 879.971 211.852C876.159 203.723 874.253 193.848 874.253 182.229C874.253 170.471 876.182 160.551 880.04 152.467C883.944 144.338 889.203 138.207 895.816 134.073C902.43 129.894 909.801 127.804 917.931 127.804C924.131 127.804 929.229 128.86 933.225 130.973C937.22 133.04 940.389 135.543 942.732 138.482C945.074 141.376 946.888 144.108 948.174 146.68H949.208V93.9091H974.215V235H949.69V218.328H948.174C946.888 220.9 945.028 223.633 942.594 226.526C940.16 229.374 936.945 231.808 932.949 233.829C928.953 235.85 923.924 236.86 917.862 236.86ZM924.82 216.399C930.102 216.399 934.602 214.975 938.323 212.128C942.043 209.234 944.867 205.216 946.796 200.072C948.725 194.928 949.69 188.934 949.69 182.091C949.69 175.248 948.725 169.3 946.796 164.248C944.913 159.196 942.112 155.269 938.392 152.467C934.717 149.666 930.193 148.265 924.82 148.265C919.262 148.265 914.624 149.712 910.904 152.605C907.183 155.499 904.382 159.494 902.499 164.592C900.616 169.69 899.674 175.523 899.674 182.091C899.674 188.705 900.616 194.606 902.499 199.796C904.428 204.94 907.252 209.005 910.972 211.99C914.739 214.929 919.354 216.399 924.82 216.399Z" fill="url(#paint5_linear_202_18)"/>
<path d="M397.916 235V93.9091H423.475V158.737H425.197L480.242 93.9091H511.45L456.888 157.221L511.933 235H481.207L439.114 174.513L423.475 192.976V235H397.916ZM534.736 235V129.182H559.675V235H534.736ZM547.274 114.163C543.324 114.163 539.926 112.854 537.078 110.237C534.231 107.573 532.807 104.381 532.807 100.661C532.807 96.8944 534.231 93.7024 537.078 91.0845C539.926 88.4207 543.324 87.0888 547.274 87.0888C551.27 87.0888 554.669 88.4207 557.47 91.0845C560.318 93.7024 561.741 96.8944 561.741 100.661C561.741 104.381 560.318 107.573 557.47 110.237C554.669 112.854 551.27 114.163 547.274 114.163ZM585.32 235V129.182H609.501V146.818H610.603C612.532 140.71 615.839 136.002 620.524 132.695C625.254 129.343 630.651 127.666 636.713 127.666C638.091 127.666 639.63 127.735 641.329 127.873C643.074 127.965 644.521 128.125 645.669 128.355V151.296C644.613 150.929 642.936 150.607 640.64 150.332C638.39 150.01 636.208 149.849 634.095 149.849C629.548 149.849 625.461 150.837 621.833 152.812C618.25 154.741 615.426 157.428 613.359 160.872C611.292 164.317 610.259 168.29 610.259 172.79V235H585.32ZM690.794 237.136C684.088 237.136 678.048 235.942 672.675 233.553C667.347 231.119 663.122 227.537 659.999 222.806C656.922 218.076 655.383 212.243 655.383 205.308C655.383 199.337 656.485 194.4 658.69 190.496C660.894 186.592 663.903 183.469 667.715 181.126C671.527 178.784 675.821 177.016 680.597 175.822C685.42 174.582 690.403 173.686 695.547 173.135C701.747 172.492 706.776 171.918 710.634 171.413C714.492 170.862 717.294 170.035 719.039 168.933C720.83 167.784 721.726 166.016 721.726 163.628V163.214C721.726 158.025 720.187 154.006 717.11 151.158C714.033 148.311 709.601 146.887 703.814 146.887C697.706 146.887 692.86 148.219 689.278 150.883C685.741 153.547 683.353 156.693 682.113 160.321L658.828 157.014C660.665 150.584 663.696 145.211 667.921 140.893C672.147 136.53 677.314 133.269 683.422 131.111C689.53 128.906 696.282 127.804 703.676 127.804C708.774 127.804 713.849 128.401 718.901 129.595C723.954 130.789 728.569 132.764 732.749 135.52C736.928 138.23 740.281 141.927 742.807 146.612C745.379 151.296 746.665 157.152 746.665 164.179V235H722.691V220.464H721.864C720.348 223.403 718.213 226.159 715.457 228.731C712.747 231.257 709.325 233.301 705.192 234.862C701.104 236.378 696.305 237.136 690.794 237.136ZM697.269 218.81C702.276 218.81 706.616 217.823 710.29 215.848C713.964 213.827 716.789 211.163 718.764 207.857C720.785 204.55 721.795 200.944 721.795 197.04V184.571C721.014 185.214 719.682 185.811 717.799 186.362C715.962 186.913 713.895 187.396 711.599 187.809C709.302 188.222 707.029 188.59 704.779 188.911C702.528 189.233 700.576 189.508 698.923 189.738C695.203 190.243 691.873 191.07 688.933 192.218C685.994 193.366 683.675 194.974 681.975 197.04C680.276 199.061 679.426 201.679 679.426 204.894C679.426 209.487 681.103 212.955 684.455 215.297C687.808 217.639 692.079 218.81 697.269 218.81ZM787.105 236.516C782.925 236.516 779.343 235.046 776.357 232.107C773.372 229.167 771.902 225.585 771.948 221.359C771.902 217.226 773.372 213.689 776.357 210.75C779.343 207.811 782.925 206.341 787.105 206.341C791.146 206.341 794.66 207.811 797.645 210.75C800.676 213.689 802.215 217.226 802.261 221.359C802.215 224.161 801.48 226.71 800.056 229.006C798.678 231.303 796.841 233.14 794.545 234.518C792.294 235.85 789.814 236.516 787.105 236.516ZM828.009 235V129.182H852.948V235H828.009ZM840.548 114.163C836.598 114.163 833.199 112.854 830.352 110.237C827.504 107.573 826.08 104.381 826.08 100.661C826.08 96.8944 827.504 93.7024 830.352 91.0845C833.199 88.4207 836.598 87.0888 840.548 87.0888C844.543 87.0888 847.942 88.4207 850.744 91.0845C853.591 93.7024 855.015 96.8944 855.015 100.661C855.015 104.381 853.591 107.573 850.744 110.237C847.942 112.854 844.543 114.163 840.548 114.163ZM917.862 236.86C909.549 236.86 902.108 234.724 895.541 230.453C888.973 226.182 883.783 219.982 879.971 211.852C876.159 203.723 874.253 193.848 874.253 182.229C874.253 170.471 876.182 160.551 880.04 152.467C883.944 144.338 889.203 138.207 895.816 134.073C902.43 129.894 909.801 127.804 917.931 127.804C924.131 127.804 929.229 128.86 933.225 130.973C937.22 133.04 940.389 135.543 942.732 138.482C945.074 141.376 946.888 144.108 948.174 146.68H949.208V93.9091H974.215V235H949.69V218.328H948.174C946.888 220.9 945.028 223.633 942.594 226.526C940.16 229.374 936.945 231.808 932.949 233.829C928.953 235.85 923.924 236.86 917.862 236.86ZM924.82 216.399C930.102 216.399 934.602 214.975 938.323 212.128C942.043 209.234 944.867 205.216 946.796 200.072C948.725 194.928 949.69 188.934 949.69 182.091C949.69 175.248 948.725 169.3 946.796 164.248C944.913 159.196 942.112 155.269 938.392 152.467C934.717 149.666 930.193 148.265 924.82 148.265C919.262 148.265 914.624 149.712 910.904 152.605C907.183 155.499 904.382 159.494 902.499 164.592C900.616 169.69 899.674 175.523 899.674 182.091C899.674 188.705 900.616 194.606 902.499 199.796C904.428 204.94 907.252 209.005 910.972 211.99C914.739 214.929 919.354 216.399 924.82 216.399Z" fill="url(#paint6_linear_202_18)" fill-opacity="0.35"/>
<path d="M397.916 235V93.9091H423.475V158.737H425.197L480.242 93.9091H511.45L456.888 157.221L511.933 235H481.207L439.114 174.513L423.475 192.976V235H397.916ZM534.736 235V129.182H559.675V235H534.736ZM547.274 114.163C543.324 114.163 539.926 112.854 537.078 110.237C534.231 107.573 532.807 104.381 532.807 100.661C532.807 96.8944 534.231 93.7024 537.078 91.0845C539.926 88.4207 543.324 87.0888 547.274 87.0888C551.27 87.0888 554.669 88.4207 557.47 91.0845C560.318 93.7024 561.741 96.8944 561.741 100.661C561.741 104.381 560.318 107.573 557.47 110.237C554.669 112.854 551.27 114.163 547.274 114.163ZM585.32 235V129.182H609.501V146.818H610.603C612.532 140.71 615.839 136.002 620.524 132.695C625.254 129.343 630.651 127.666 636.713 127.666C638.091 127.666 639.63 127.735 641.329 127.873C643.074 127.965 644.521 128.125 645.669 128.355V151.296C644.613 150.929 642.936 150.607 640.64 150.332C638.39 150.01 636.208 149.849 634.095 149.849C629.548 149.849 625.461 150.837 621.833 152.812C618.25 154.741 615.426 157.428 613.359 160.872C611.292 164.317 610.259 168.29 610.259 172.79V235H585.32ZM690.794 237.136C684.088 237.136 678.048 235.942 672.675 233.553C667.347 231.119 663.122 227.537 659.999 222.806C656.922 218.076 655.383 212.243 655.383 205.308C655.383 199.337 656.485 194.4 658.69 190.496C660.894 186.592 663.903 183.469 667.715 181.126C671.527 178.784 675.821 177.016 680.597 175.822C685.42 174.582 690.403 173.686 695.547 173.135C701.747 172.492 706.776 171.918 710.634 171.413C714.492 170.862 717.294 170.035 719.039 168.933C720.83 167.784 721.726 166.016 721.726 163.628V163.214C721.726 158.025 720.187 154.006 717.11 151.158C714.033 148.311 709.601 146.887 703.814 146.887C697.706 146.887 692.86 148.219 689.278 150.883C685.741 153.547 683.353 156.693 682.113 160.321L658.828 157.014C660.665 150.584 663.696 145.211 667.921 140.893C672.147 136.53 677.314 133.269 683.422 131.111C689.53 128.906 696.282 127.804 703.676 127.804C708.774 127.804 713.849 128.401 718.901 129.595C723.954 130.789 728.569 132.764 732.749 135.52C736.928 138.23 740.281 141.927 742.807 146.612C745.379 151.296 746.665 157.152 746.665 164.179V235H722.691V220.464H721.864C720.348 223.403 718.213 226.159 715.457 228.731C712.747 231.257 709.325 233.301 705.192 234.862C701.104 236.378 696.305 237.136 690.794 237.136ZM697.269 218.81C702.276 218.81 706.616 217.823 710.29 215.848C713.964 213.827 716.789 211.163 718.764 207.857C720.785 204.55 721.795 200.944 721.795 197.04V184.571C721.014 185.214 719.682 185.811 717.799 186.362C715.962 186.913 713.895 187.396 711.599 187.809C709.302 188.222 707.029 188.59 704.779 188.911C702.528 189.233 700.576 189.508 698.923 189.738C695.203 190.243 691.873 191.07 688.933 192.218C685.994 193.366 683.675 194.974 681.975 197.04C680.276 199.061 679.426 201.679 679.426 204.894C679.426 209.487 681.103 212.955 684.455 215.297C687.808 217.639 692.079 218.81 697.269 218.81ZM787.105 236.516C782.925 236.516 779.343 235.046 776.357 232.107C773.372 229.167 771.902 225.585 771.948 221.359C771.902 217.226 773.372 213.689 776.357 210.75C779.343 207.811 782.925 206.341 787.105 206.341C791.146 206.341 794.66 207.811 797.645 210.75C800.676 213.689 802.215 217.226 802.261 221.359C802.215 224.161 801.48 226.71 800.056 229.006C798.678 231.303 796.841 233.14 794.545 234.518C792.294 235.85 789.814 236.516 787.105 236.516ZM828.009 235V129.182H852.948V235H828.009ZM840.548 114.163C836.598 114.163 833.199 112.854 830.352 110.237C827.504 107.573 826.08 104.381 826.08 100.661C826.08 96.8944 827.504 93.7024 830.352 91.0845C833.199 88.4207 836.598 87.0888 840.548 87.0888C844.543 87.0888 847.942 88.4207 850.744 91.0845C853.591 93.7024 855.015 96.8944 855.015 100.661C855.015 104.381 853.591 107.573 850.744 110.237C847.942 112.854 844.543 114.163 840.548 114.163ZM917.862 236.86C909.549 236.86 902.108 234.724 895.541 230.453C888.973 226.182 883.783 219.982 879.971 211.852C876.159 203.723 874.253 193.848 874.253 182.229C874.253 170.471 876.182 160.551 880.04 152.467C883.944 144.338 889.203 138.207 895.816 134.073C902.43 129.894 909.801 127.804 917.931 127.804C924.131 127.804 929.229 128.86 933.225 130.973C937.22 133.04 940.389 135.543 942.732 138.482C945.074 141.376 946.888 144.108 948.174 146.68H949.208V93.9091H974.215V235H949.69V218.328H948.174C946.888 220.9 945.028 223.633 942.594 226.526C940.16 229.374 936.945 231.808 932.949 233.829C928.953 235.85 923.924 236.86 917.862 236.86ZM924.82 216.399C930.102 216.399 934.602 214.975 938.323 212.128C942.043 209.234 944.867 205.216 946.796 200.072C948.725 194.928 949.69 188.934 949.69 182.091C949.69 175.248 948.725 169.3 946.796 164.248C944.913 159.196 942.112 155.269 938.392 152.467C934.717 149.666 930.193 148.265 924.82 148.265C919.262 148.265 914.624 149.712 910.904 152.605C907.183 155.499 904.382 159.494 902.499 164.592C900.616 169.69 899.674 175.523 899.674 182.091C899.674 188.705 900.616 194.606 902.499 199.796C904.428 204.94 907.252 209.005 910.972 211.99C914.739 214.929 919.354 216.399 924.82 216.399Z" fill="url(#paint7_linear_202_18)" fill-opacity="0.62"/>
<path d="M397.916 235V93.9091H423.475V158.737H425.197L480.242 93.9091H511.45L456.888 157.221L511.933 235H481.207L439.114 174.513L423.475 192.976V235H397.916ZM534.736 235V129.182H559.675V235H534.736ZM547.274 114.163C543.324 114.163 539.926 112.854 537.078 110.237C534.231 107.573 532.807 104.381 532.807 100.661C532.807 96.8944 534.231 93.7024 537.078 91.0845C539.926 88.4207 543.324 87.0888 547.274 87.0888C551.27 87.0888 554.669 88.4207 557.47 91.0845C560.318 93.7024 561.741 96.8944 561.741 100.661C561.741 104.381 560.318 107.573 557.47 110.237C554.669 112.854 551.27 114.163 547.274 114.163ZM585.32 235V129.182H609.501V146.818H610.603C612.532 140.71 615.839 136.002 620.524 132.695C625.254 129.343 630.651 127.666 636.713 127.666C638.091 127.666 639.63 127.735 641.329 127.873C643.074 127.965 644.521 128.125 645.669 128.355V151.296C644.613 150.929 642.936 150.607 640.64 150.332C638.39 150.01 636.208 149.849 634.095 149.849C629.548 149.849 625.461 150.837 621.833 152.812C618.25 154.741 615.426 157.428 613.359 160.872C611.292 164.317 610.259 168.29 610.259 172.79V235H585.32ZM690.794 237.136C684.088 237.136 678.048 235.942 672.675 233.553C667.347 231.119 663.122 227.537 659.999 222.806C656.922 218.076 655.383 212.243 655.383 205.308C655.383 199.337 656.485 194.4 658.69 190.496C660.894 186.592 663.903 183.469 667.715 181.126C671.527 178.784 675.821 177.016 680.597 175.822C685.42 174.582 690.403 173.686 695.547 173.135C701.747 172.492 706.776 171.918 710.634 171.413C714.492 170.862 717.294 170.035 719.039 168.933C720.83 167.784 721.726 166.016 721.726 163.628V163.214C721.726 158.025 720.187 154.006 717.11 151.158C714.033 148.311 709.601 146.887 703.814 146.887C697.706 146.887 692.86 148.219 689.278 150.883C685.741 153.547 683.353 156.693 682.113 160.321L658.828 157.014C660.665 150.584 663.696 145.211 667.921 140.893C672.147 136.53 677.314 133.269 683.422 131.111C689.53 128.906 696.282 127.804 703.676 127.804C708.774 127.804 713.849 128.401 718.901 129.595C723.954 130.789 728.569 132.764 732.749 135.52C736.928 138.23 740.281 141.927 742.807 146.612C745.379 151.296 746.665 157.152 746.665 164.179V235H722.691V220.464H721.864C720.348 223.403 718.213 226.159 715.457 228.731C712.747 231.257 709.325 233.301 705.192 234.862C701.104 236.378 696.305 237.136 690.794 237.136ZM697.269 218.81C702.276 218.81 706.616 217.823 710.29 215.848C713.964 213.827 716.789 211.163 718.764 207.857C720.785 204.55 721.795 200.944 721.795 197.04V184.571C721.014 185.214 719.682 185.811 717.799 186.362C715.962 186.913 713.895 187.396 711.599 187.809C709.302 188.222 707.029 188.59 704.779 188.911C702.528 189.233 700.576 189.508 698.923 189.738C695.203 190.243 691.873 191.07 688.933 192.218C685.994 193.366 683.675 194.974 681.975 197.04C680.276 199.061 679.426 201.679 679.426 204.894C679.426 209.487 681.103 212.955 684.455 215.297C687.808 217.639 692.079 218.81 697.269 218.81ZM787.105 236.516C782.925 236.516 779.343 235.046 776.357 232.107C773.372 229.167 771.902 225.585 771.948 221.359C771.902 217.226 773.372 213.689 776.357 210.75C779.343 207.811 782.925 206.341 787.105 206.341C791.146 206.341 794.66 207.811 797.645 210.75C800.676 213.689 802.215 217.226 802.261 221.359C802.215 224.161 801.48 226.71 800.056 229.006C798.678 231.303 796.841 233.14 794.545 234.518C792.294 235.85 789.814 236.516 787.105 236.516ZM828.009 235V129.182H852.948V235H828.009ZM840.548 114.163C836.598 114.163 833.199 112.854 830.352 110.237C827.504 107.573 826.08 104.381 826.08 100.661C826.08 96.8944 827.504 93.7024 830.352 91.0845C833.199 88.4207 836.598 87.0888 840.548 87.0888C844.543 87.0888 847.942 88.4207 850.744 91.0845C853.591 93.7024 855.015 96.8944 855.015 100.661C855.015 104.381 853.591 107.573 850.744 110.237C847.942 112.854 844.543 114.163 840.548 114.163ZM917.862 236.86C909.549 236.86 902.108 234.724 895.541 230.453C888.973 226.182 883.783 219.982 879.971 211.852C876.159 203.723 874.253 193.848 874.253 182.229C874.253 170.471 876.182 160.551 880.04 152.467C883.944 144.338 889.203 138.207 895.816 134.073C902.43 129.894 909.801 127.804 917.931 127.804C924.131 127.804 929.229 128.86 933.225 130.973C937.22 133.04 940.389 135.543 942.732 138.482C945.074 141.376 946.888 144.108 948.174 146.68H949.208V93.9091H974.215V235H949.69V218.328H948.174C946.888 220.9 945.028 223.633 942.594 226.526C940.16 229.374 936.945 231.808 932.949 233.829C928.953 235.85 923.924 236.86 917.862 236.86ZM924.82 216.399C930.102 216.399 934.602 214.975 938.323 212.128C942.043 209.234 944.867 205.216 946.796 200.072C948.725 194.928 949.69 188.934 949.69 182.091C949.69 175.248 948.725 169.3 946.796 164.248C944.913 159.196 942.112 155.269 938.392 152.467C934.717 149.666 930.193 148.265 924.82 148.265C919.262 148.265 914.624 149.712 910.904 152.605C907.183 155.499 904.382 159.494 902.499 164.592C900.616 169.69 899.674 175.523 899.674 182.091C899.674 188.705 900.616 194.606 902.499 199.796C904.428 204.94 907.252 209.005 910.972 211.99C914.739 214.929 919.354 216.399 924.82 216.399Z" fill="url(#paint8_linear_202_18)" fill-opacity="0.48"/>
<path d="M397.916 235V93.9091H423.475V158.737H425.197L480.242 93.9091H511.45L456.888 157.221L511.933 235H481.207L439.114 174.513L423.475 192.976V235H397.916ZM534.736 235V129.182H559.675V235H534.736ZM547.274 114.163C543.324 114.163 539.926 112.854 537.078 110.237C534.231 107.573 532.807 104.381 532.807 100.661C532.807 96.8944 534.231 93.7024 537.078 91.0845C539.926 88.4207 543.324 87.0888 547.274 87.0888C551.27 87.0888 554.669 88.4207 557.47 91.0845C560.318 93.7024 561.741 96.8944 561.741 100.661C561.741 104.381 560.318 107.573 557.47 110.237C554.669 112.854 551.27 114.163 547.274 114.163ZM585.32 235V129.182H609.501V146.818H610.603C612.532 140.71 615.839 136.002 620.524 132.695C625.254 129.343 630.651 127.666 636.713 127.666C638.091 127.666 639.63 127.735 641.329 127.873C643.074 127.965 644.521 128.125 645.669 128.355V151.296C644.613 150.929 642.936 150.607 640.64 150.332C638.39 150.01 636.208 149.849 634.095 149.849C629.548 149.849 625.461 150.837 621.833 152.812C618.25 154.741 615.426 157.428 613.359 160.872C611.292 164.317 610.259 168.29 610.259 172.79V235H585.32ZM690.794 237.136C684.088 237.136 678.048 235.942 672.675 233.553C667.347 231.119 663.122 227.537 659.999 222.806C656.922 218.076 655.383 212.243 655.383 205.308C655.383 199.337 656.485 194.4 658.69 190.496C660.894 186.592 663.903 183.469 667.715 181.126C671.527 178.784 675.821 177.016 680.597 175.822C685.42 174.582 690.403 173.686 695.547 173.135C701.747 172.492 706.776 171.918 710.634 171.413C714.492 170.862 717.294 170.035 719.039 168.933C720.83 167.784 721.726 166.016 721.726 163.628V163.214C721.726 158.025 720.187 154.006 717.11 151.158C714.033 148.311 709.601 146.887 703.814 146.887C697.706 146.887 692.86 148.219 689.278 150.883C685.741 153.547 683.353 156.693 682.113 160.321L658.828 157.014C660.665 150.584 663.696 145.211 667.921 140.893C672.147 136.53 677.314 133.269 683.422 131.111C689.53 128.906 696.282 127.804 703.676 127.804C708.774 127.804 713.849 128.401 718.901 129.595C723.954 130.789 728.569 132.764 732.749 135.52C736.928 138.23 740.281 141.927 742.807 146.612C745.379 151.296 746.665 157.152 746.665 164.179V235H722.691V220.464H721.864C720.348 223.403 718.213 226.159 715.457 228.731C712.747 231.257 709.325 233.301 705.192 234.862C701.104 236.378 696.305 237.136 690.794 237.136ZM697.269 218.81C702.276 218.81 706.616 217.823 710.29 215.848C713.964 213.827 716.789 211.163 718.764 207.857C720.785 204.55 721.795 200.944 721.795 197.04V184.571C721.014 185.214 719.682 185.811 717.799 186.362C715.962 186.913 713.895 187.396 711.599 187.809C709.302 188.222 707.029 188.59 704.779 188.911C702.528 189.233 700.576 189.508 698.923 189.738C695.203 190.243 691.873 191.07 688.933 192.218C685.994 193.366 683.675 194.974 681.975 197.04C680.276 199.061 679.426 201.679 679.426 204.894C679.426 209.487 681.103 212.955 684.455 215.297C687.808 217.639 692.079 218.81 697.269 218.81ZM787.105 236.516C782.925 236.516 779.343 235.046 776.357 232.107C773.372 229.167 771.902 225.585 771.948 221.359C771.902 217.226 773.372 213.689 776.357 210.75C779.343 207.811 782.925 206.341 787.105 206.341C791.146 206.341 794.66 207.811 797.645 210.75C800.676 213.689 802.215 217.226 802.261 221.359C802.215 224.161 801.48 226.71 800.056 229.006C798.678 231.303 796.841 233.14 794.545 234.518C792.294 235.85 789.814 236.516 787.105 236.516ZM828.009 235V129.182H852.948V235H828.009ZM840.548 114.163C836.598 114.163 833.199 112.854 830.352 110.237C827.504 107.573 826.08 104.381 826.08 100.661C826.08 96.8944 827.504 93.7024 830.352 91.0845C833.199 88.4207 836.598 87.0888 840.548 87.0888C844.543 87.0888 847.942 88.4207 850.744 91.0845C853.591 93.7024 855.015 96.8944 855.015 100.661C855.015 104.381 853.591 107.573 850.744 110.237C847.942 112.854 844.543 114.163 840.548 114.163ZM917.862 236.86C909.549 236.86 902.108 234.724 895.541 230.453C888.973 226.182 883.783 219.982 879.971 211.852C876.159 203.723 874.253 193.848 874.253 182.229C874.253 170.471 876.182 160.551 880.04 152.467C883.944 144.338 889.203 138.207 895.816 134.073C902.43 129.894 909.801 127.804 917.931 127.804C924.131 127.804 929.229 128.86 933.225 130.973C937.22 133.04 940.389 135.543 942.732 138.482C945.074 141.376 946.888 144.108 948.174 146.68H949.208V93.9091H974.215V235H949.69V218.328H948.174C946.888 220.9 945.028 223.633 942.594 226.526C940.16 229.374 936.945 231.808 932.949 233.829C928.953 235.85 923.924 236.86 917.862 236.86ZM924.82 216.399C930.102 216.399 934.602 214.975 938.323 212.128C942.043 209.234 944.867 205.216 946.796 200.072C948.725 194.928 949.69 188.934 949.69 182.091C949.69 175.248 948.725 169.3 946.796 164.248C944.913 159.196 942.112 155.269 938.392 152.467C934.717 149.666 930.193 148.265 924.82 148.265C919.262 148.265 914.624 149.712 910.904 152.605C907.183 155.499 904.382 159.494 902.499 164.592C900.616 169.69 899.674 175.523 899.674 182.091C899.674 188.705 900.616 194.606 902.499 199.796C904.428 204.94 907.252 209.005 910.972 211.99C914.739 214.929 919.354 216.399 924.82 216.399Z" fill="url(#paint9_linear_202_18)" fill-opacity="0.48"/>
<path d="M397.916 235V93.9091H423.475V158.737H425.197L480.242 93.9091H511.45L456.888 157.221L511.933 235H481.207L439.114 174.513L423.475 192.976V235H397.916ZM534.736 235V129.182H559.675V235H534.736ZM547.274 114.163C543.324 114.163 539.926 112.854 537.078 110.237C534.231 107.573 532.807 104.381 532.807 100.661C532.807 96.8944 534.231 93.7024 537.078 91.0845C539.926 88.4207 543.324 87.0888 547.274 87.0888C551.27 87.0888 554.669 88.4207 557.47 91.0845C560.318 93.7024 561.741 96.8944 561.741 100.661C561.741 104.381 560.318 107.573 557.47 110.237C554.669 112.854 551.27 114.163 547.274 114.163ZM585.32 235V129.182H609.501V146.818H610.603C612.532 140.71 615.839 136.002 620.524 132.695C625.254 129.343 630.651 127.666 636.713 127.666C638.091 127.666 639.63 127.735 641.329 127.873C643.074 127.965 644.521 128.125 645.669 128.355V151.296C644.613 150.929 642.936 150.607 640.64 150.332C638.39 150.01 636.208 149.849 634.095 149.849C629.548 149.849 625.461 150.837 621.833 152.812C618.25 154.741 615.426 157.428 613.359 160.872C611.292 164.317 610.259 168.29 610.259 172.79V235H585.32ZM690.794 237.136C684.088 237.136 678.048 235.942 672.675 233.553C667.347 231.119 663.122 227.537 659.999 222.806C656.922 218.076 655.383 212.243 655.383 205.308C655.383 199.337 656.485 194.4 658.69 190.496C660.894 186.592 663.903 183.469 667.715 181.126C671.527 178.784 675.821 177.016 680.597 175.822C685.42 174.582 690.403 173.686 695.547 173.135C701.747 172.492 706.776 171.918 710.634 171.413C714.492 170.862 717.294 170.035 719.039 168.933C720.83 167.784 721.726 166.016 721.726 163.628V163.214C721.726 158.025 720.187 154.006 717.11 151.158C714.033 148.311 709.601 146.887 703.814 146.887C697.706 146.887 692.86 148.219 689.278 150.883C685.741 153.547 683.353 156.693 682.113 160.321L658.828 157.014C660.665 150.584 663.696 145.211 667.921 140.893C672.147 136.53 677.314 133.269 683.422 131.111C689.53 128.906 696.282 127.804 703.676 127.804C708.774 127.804 713.849 128.401 718.901 129.595C723.954 130.789 728.569 132.764 732.749 135.52C736.928 138.23 740.281 141.927 742.807 146.612C745.379 151.296 746.665 157.152 746.665 164.179V235H722.691V220.464H721.864C720.348 223.403 718.213 226.159 715.457 228.731C712.747 231.257 709.325 233.301 705.192 234.862C701.104 236.378 696.305 237.136 690.794 237.136ZM697.269 218.81C702.276 218.81 706.616 217.823 710.29 215.848C713.964 213.827 716.789 211.163 718.764 207.857C720.785 204.55 721.795 200.944 721.795 197.04V184.571C721.014 185.214 719.682 185.811 717.799 186.362C715.962 186.913 713.895 187.396 711.599 187.809C709.302 188.222 707.029 188.59 704.779 188.911C702.528 189.233 700.576 189.508 698.923 189.738C695.203 190.243 691.873 191.07 688.933 192.218C685.994 193.366 683.675 194.974 681.975 197.04C680.276 199.061 679.426 201.679 679.426 204.894C679.426 209.487 681.103 212.955 684.455 215.297C687.808 217.639 692.079 218.81 697.269 218.81ZM787.105 236.516C782.925 236.516 779.343 235.046 776.357 232.107C773.372 229.167 771.902 225.585 771.948 221.359C771.902 217.226 773.372 213.689 776.357 210.75C779.343 207.811 782.925 206.341 787.105 206.341C791.146 206.341 794.66 207.811 797.645 210.75C800.676 213.689 802.215 217.226 802.261 221.359C802.215 224.161 801.48 226.71 800.056 229.006C798.678 231.303 796.841 233.14 794.545 234.518C792.294 235.85 789.814 236.516 787.105 236.516ZM828.009 235V129.182H852.948V235H828.009ZM840.548 114.163C836.598 114.163 833.199 112.854 830.352 110.237C827.504 107.573 826.08 104.381 826.08 100.661C826.08 96.8944 827.504 93.7024 830.352 91.0845C833.199 88.4207 836.598 87.0888 840.548 87.0888C844.543 87.0888 847.942 88.4207 850.744 91.0845C853.591 93.7024 855.015 96.8944 855.015 100.661C855.015 104.381 853.591 107.573 850.744 110.237C847.942 112.854 844.543 114.163 840.548 114.163ZM917.862 236.86C909.549 236.86 902.108 234.724 895.541 230.453C888.973 226.182 883.783 219.982 879.971 211.852C876.159 203.723 874.253 193.848 874.253 182.229C874.253 170.471 876.182 160.551 880.04 152.467C883.944 144.338 889.203 138.207 895.816 134.073C902.43 129.894 909.801 127.804 917.931 127.804C924.131 127.804 929.229 128.86 933.225 130.973C937.22 133.04 940.389 135.543 942.732 138.482C945.074 141.376 946.888 144.108 948.174 146.68H949.208V93.9091H974.215V235H949.69V218.328H948.174C946.888 220.9 945.028 223.633 942.594 226.526C940.16 229.374 936.945 231.808 932.949 233.829C928.953 235.85 923.924 236.86 917.862 236.86ZM924.82 216.399C930.102 216.399 934.602 214.975 938.323 212.128C942.043 209.234 944.867 205.216 946.796 200.072C948.725 194.928 949.69 188.934 949.69 182.091C949.69 175.248 948.725 169.3 946.796 164.248C944.913 159.196 942.112 155.269 938.392 152.467C934.717 149.666 930.193 148.265 924.82 148.265C919.262 148.265 914.624 149.712 910.904 152.605C907.183 155.499 904.382 159.494 902.499 164.592C900.616 169.69 899.674 175.523 899.674 182.091C899.674 188.705 900.616 194.606 902.499 199.796C904.428 204.94 907.252 209.005 910.972 211.99C914.739 214.929 919.354 216.399 924.82 216.399Z" fill="url(#paint10_linear_202_18)"/>
<path d="M397.916 235V93.9091H423.475V158.737H425.197L480.242 93.9091H511.45L456.888 157.221L511.933 235H481.207L439.114 174.513L423.475 192.976V235H397.916ZM534.736 235V129.182H559.675V235H534.736ZM547.274 114.163C543.324 114.163 539.926 112.854 537.078 110.237C534.231 107.573 532.807 104.381 532.807 100.661C532.807 96.8944 534.231 93.7024 537.078 91.0845C539.926 88.4207 543.324 87.0888 547.274 87.0888C551.27 87.0888 554.669 88.4207 557.47 91.0845C560.318 93.7024 561.741 96.8944 561.741 100.661C561.741 104.381 560.318 107.573 557.47 110.237C554.669 112.854 551.27 114.163 547.274 114.163ZM585.32 235V129.182H609.501V146.818H610.603C612.532 140.71 615.839 136.002 620.524 132.695C625.254 129.343 630.651 127.666 636.713 127.666C638.091 127.666 639.63 127.735 641.329 127.873C643.074 127.965 644.521 128.125 645.669 128.355V151.296C644.613 150.929 642.936 150.607 640.64 150.332C638.39 150.01 636.208 149.849 634.095 149.849C629.548 149.849 625.461 150.837 621.833 152.812C618.25 154.741 615.426 157.428 613.359 160.872C611.292 164.317 610.259 168.29 610.259 172.79V235H585.32ZM690.794 237.136C684.088 237.136 678.048 235.942 672.675 233.553C667.347 231.119 663.122 227.537 659.999 222.806C656.922 218.076 655.383 212.243 655.383 205.308C655.383 199.337 656.485 194.4 658.69 190.496C660.894 186.592 663.903 183.469 667.715 181.126C671.527 178.784 675.821 177.016 680.597 175.822C685.42 174.582 690.403 173.686 695.547 173.135C701.747 172.492 706.776 171.918 710.634 171.413C714.492 170.862 717.294 170.035 719.039 168.933C720.83 167.784 721.726 166.016 721.726 163.628V163.214C721.726 158.025 720.187 154.006 717.11 151.158C714.033 148.311 709.601 146.887 703.814 146.887C697.706 146.887 692.86 148.219 689.278 150.883C685.741 153.547 683.353 156.693 682.113 160.321L658.828 157.014C660.665 150.584 663.696 145.211 667.921 140.893C672.147 136.53 677.314 133.269 683.422 131.111C689.53 128.906 696.282 127.804 703.676 127.804C708.774 127.804 713.849 128.401 718.901 129.595C723.954 130.789 728.569 132.764 732.749 135.52C736.928 138.23 740.281 141.927 742.807 146.612C745.379 151.296 746.665 157.152 746.665 164.179V235H722.691V220.464H721.864C720.348 223.403 718.213 226.159 715.457 228.731C712.747 231.257 709.325 233.301 705.192 234.862C701.104 236.378 696.305 237.136 690.794 237.136ZM697.269 218.81C702.276 218.81 706.616 217.823 710.29 215.848C713.964 213.827 716.789 211.163 718.764 207.857C720.785 204.55 721.795 200.944 721.795 197.04V184.571C721.014 185.214 719.682 185.811 717.799 186.362C715.962 186.913 713.895 187.396 711.599 187.809C709.302 188.222 707.029 188.59 704.779 188.911C702.528 189.233 700.576 189.508 698.923 189.738C695.203 190.243 691.873 191.07 688.933 192.218C685.994 193.366 683.675 194.974 681.975 197.04C680.276 199.061 679.426 201.679 679.426 204.894C679.426 209.487 681.103 212.955 684.455 215.297C687.808 217.639 692.079 218.81 697.269 218.81ZM787.105 236.516C782.925 236.516 779.343 235.046 776.357 232.107C773.372 229.167 771.902 225.585 771.948 221.359C771.902 217.226 773.372 213.689 776.357 210.75C779.343 207.811 782.925 206.341 787.105 206.341C791.146 206.341 794.66 207.811 797.645 210.75C800.676 213.689 802.215 217.226 802.261 221.359C802.215 224.161 801.48 226.71 800.056 229.006C798.678 231.303 796.841 233.14 794.545 234.518C792.294 235.85 789.814 236.516 787.105 236.516ZM828.009 235V129.182H852.948V235H828.009ZM840.548 114.163C836.598 114.163 833.199 112.854 830.352 110.237C827.504 107.573 826.08 104.381 826.08 100.661C826.08 96.8944 827.504 93.7024 830.352 91.0845C833.199 88.4207 836.598 87.0888 840.548 87.0888C844.543 87.0888 847.942 88.4207 850.744 91.0845C853.591 93.7024 855.015 96.8944 855.015 100.661C855.015 104.381 853.591 107.573 850.744 110.237C847.942 112.854 844.543 114.163 840.548 114.163ZM917.862 236.86C909.549 236.86 902.108 234.724 895.541 230.453C888.973 226.182 883.783 219.982 879.971 211.852C876.159 203.723 874.253 193.848 874.253 182.229C874.253 170.471 876.182 160.551 880.04 152.467C883.944 144.338 889.203 138.207 895.816 134.073C902.43 129.894 909.801 127.804 917.931 127.804C924.131 127.804 929.229 128.86 933.225 130.973C937.22 133.04 940.389 135.543 942.732 138.482C945.074 141.376 946.888 144.108 948.174 146.68H949.208V93.9091H974.215V235H949.69V218.328H948.174C946.888 220.9 945.028 223.633 942.594 226.526C940.16 229.374 936.945 231.808 932.949 233.829C928.953 235.85 923.924 236.86 917.862 236.86ZM924.82 216.399C930.102 216.399 934.602 214.975 938.323 212.128C942.043 209.234 944.867 205.216 946.796 200.072C948.725 194.928 949.69 188.934 949.69 182.091C949.69 175.248 948.725 169.3 946.796 164.248C944.913 159.196 942.112 155.269 938.392 152.467C934.717 149.666 930.193 148.265 924.82 148.265C919.262 148.265 914.624 149.712 910.904 152.605C907.183 155.499 904.382 159.494 902.499 164.592C900.616 169.69 899.674 175.523 899.674 182.091C899.674 188.705 900.616 194.606 902.499 199.796C904.428 204.94 907.252 209.005 910.972 211.99C914.739 214.929 919.354 216.399 924.82 216.399Z" fill="url(#paint11_linear_202_18)" fill-opacity="0.59"/>
<path d="M397.916 235V93.9091H423.475V158.737H425.197L480.242 93.9091H511.45L456.888 157.221L511.933 235H481.207L439.114 174.513L423.475 192.976V235H397.916ZM534.736 235V129.182H559.675V235H534.736ZM547.274 114.163C543.324 114.163 539.926 112.854 537.078 110.237C534.231 107.573 532.807 104.381 532.807 100.661C532.807 96.8944 534.231 93.7024 537.078 91.0845C539.926 88.4207 543.324 87.0888 547.274 87.0888C551.27 87.0888 554.669 88.4207 557.47 91.0845C560.318 93.7024 561.741 96.8944 561.741 100.661C561.741 104.381 560.318 107.573 557.47 110.237C554.669 112.854 551.27 114.163 547.274 114.163ZM585.32 235V129.182H609.501V146.818H610.603C612.532 140.71 615.839 136.002 620.524 132.695C625.254 129.343 630.651 127.666 636.713 127.666C638.091 127.666 639.63 127.735 641.329 127.873C643.074 127.965 644.521 128.125 645.669 128.355V151.296C644.613 150.929 642.936 150.607 640.64 150.332C638.39 150.01 636.208 149.849 634.095 149.849C629.548 149.849 625.461 150.837 621.833 152.812C618.25 154.741 615.426 157.428 613.359 160.872C611.292 164.317 610.259 168.29 610.259 172.79V235H585.32ZM690.794 237.136C684.088 237.136 678.048 235.942 672.675 233.553C667.347 231.119 663.122 227.537 659.999 222.806C656.922 218.076 655.383 212.243 655.383 205.308C655.383 199.337 656.485 194.4 658.69 190.496C660.894 186.592 663.903 183.469 667.715 181.126C671.527 178.784 675.821 177.016 680.597 175.822C685.42 174.582 690.403 173.686 695.547 173.135C701.747 172.492 706.776 171.918 710.634 171.413C714.492 170.862 717.294 170.035 719.039 168.933C720.83 167.784 721.726 166.016 721.726 163.628V163.214C721.726 158.025 720.187 154.006 717.11 151.158C714.033 148.311 709.601 146.887 703.814 146.887C697.706 146.887 692.86 148.219 689.278 150.883C685.741 153.547 683.353 156.693 682.113 160.321L658.828 157.014C660.665 150.584 663.696 145.211 667.921 140.893C672.147 136.53 677.314 133.269 683.422 131.111C689.53 128.906 696.282 127.804 703.676 127.804C708.774 127.804 713.849 128.401 718.901 129.595C723.954 130.789 728.569 132.764 732.749 135.52C736.928 138.23 740.281 141.927 742.807 146.612C745.379 151.296 746.665 157.152 746.665 164.179V235H722.691V220.464H721.864C720.348 223.403 718.213 226.159 715.457 228.731C712.747 231.257 709.325 233.301 705.192 234.862C701.104 236.378 696.305 237.136 690.794 237.136ZM697.269 218.81C702.276 218.81 706.616 217.823 710.29 215.848C713.964 213.827 716.789 211.163 718.764 207.857C720.785 204.55 721.795 200.944 721.795 197.04V184.571C721.014 185.214 719.682 185.811 717.799 186.362C715.962 186.913 713.895 187.396 711.599 187.809C709.302 188.222 707.029 188.59 704.779 188.911C702.528 189.233 700.576 189.508 698.923 189.738C695.203 190.243 691.873 191.07 688.933 192.218C685.994 193.366 683.675 194.974 681.975 197.04C680.276 199.061 679.426 201.679 679.426 204.894C679.426 209.487 681.103 212.955 684.455 215.297C687.808 217.639 692.079 218.81 697.269 218.81ZM787.105 236.516C782.925 236.516 779.343 235.046 776.357 232.107C773.372 229.167 771.902 225.585 771.948 221.359C771.902 217.226 773.372 213.689 776.357 210.75C779.343 207.811 782.925 206.341 787.105 206.341C791.146 206.341 794.66 207.811 797.645 210.75C800.676 213.689 802.215 217.226 802.261 221.359C802.215 224.161 801.48 226.71 800.056 229.006C798.678 231.303 796.841 233.14 794.545 234.518C792.294 235.85 789.814 236.516 787.105 236.516ZM828.009 235V129.182H852.948V235H828.009ZM840.548 114.163C836.598 114.163 833.199 112.854 830.352 110.237C827.504 107.573 826.08 104.381 826.08 100.661C826.08 96.8944 827.504 93.7024 830.352 91.0845C833.199 88.4207 836.598 87.0888 840.548 87.0888C844.543 87.0888 847.942 88.4207 850.744 91.0845C853.591 93.7024 855.015 96.8944 855.015 100.661C855.015 104.381 853.591 107.573 850.744 110.237C847.942 112.854 844.543 114.163 840.548 114.163ZM917.862 236.86C909.549 236.86 902.108 234.724 895.541 230.453C888.973 226.182 883.783 219.982 879.971 211.852C876.159 203.723 874.253 193.848 874.253 182.229C874.253 170.471 876.182 160.551 880.04 152.467C883.944 144.338 889.203 138.207 895.816 134.073C902.43 129.894 909.801 127.804 917.931 127.804C924.131 127.804 929.229 128.86 933.225 130.973C937.22 133.04 940.389 135.543 942.732 138.482C945.074 141.376 946.888 144.108 948.174 146.68H949.208V93.9091H974.215V235H949.69V218.328H948.174C946.888 220.9 945.028 223.633 942.594 226.526C940.16 229.374 936.945 231.808 932.949 233.829C928.953 235.85 923.924 236.86 917.862 236.86ZM924.82 216.399C930.102 216.399 934.602 214.975 938.323 212.128C942.043 209.234 944.867 205.216 946.796 200.072C948.725 194.928 949.69 188.934 949.69 182.091C949.69 175.248 948.725 169.3 946.796 164.248C944.913 159.196 942.112 155.269 938.392 152.467C934.717 149.666 930.193 148.265 924.82 148.265C919.262 148.265 914.624 149.712 910.904 152.605C907.183 155.499 904.382 159.494 902.499 164.592C900.616 169.69 899.674 175.523 899.674 182.091C899.674 188.705 900.616 194.606 902.499 199.796C904.428 204.94 907.252 209.005 910.972 211.99C914.739 214.929 919.354 216.399 924.82 216.399Z" fill="url(#paint12_linear_202_18)" fill-opacity="0.46"/>
<defs>
<linearGradient id="paint0_linear_202_18" x1="304.066" y1="190.855" x2="265.862" y2="148.368" gradientUnits="userSpaceOnUse">
<stop stop-color="#1456FE" stop-opacity="0"/>
<stop offset="1" stop-color="#336CFB"/>
</linearGradient>
<linearGradient id="paint1_linear_202_18" x1="258.942" y1="168.304" x2="200.38" y2="101.289" gradientUnits="userSpaceOnUse">
<stop stop-color="#440493" stop-opacity="0"/>
<stop offset="1" stop-color="#440493"/>
</linearGradient>
<linearGradient id="paint2_linear_202_18" x1="227.008" y1="153.049" x2="194.708" y2="119.241" gradientUnits="userSpaceOnUse">
<stop stop-color="#D504FF" stop-opacity="0"/>
<stop offset="1" stop-color="#D504FF"/>
</linearGradient>
<linearGradient id="paint3_linear_202_18" x1="274.909" y1="254.196" x2="287.156" y2="271.288" gradientUnits="userSpaceOnUse">
<stop stop-color="#00DB30" stop-opacity="0"/>
<stop offset="1" stop-color="#00DB30"/>
</linearGradient>
<linearGradient id="paint4_linear_202_18" x1="302.678" y1="55.5497" x2="268.387" y2="14.8733" gradientUnits="userSpaceOnUse">
<stop stop-color="#FF69F0" stop-opacity="0"/>
<stop offset="1" stop-color="#FF69F0"/>
</linearGradient>
<linearGradient id="paint5_linear_202_18" x1="819.996" y1="219.52" x2="492.607" y2="181.955" gradientUnits="userSpaceOnUse">
<stop stop-color="#336CFB" stop-opacity="0"/>
<stop offset="1" stop-color="#336CFB"/>
</linearGradient>
<linearGradient id="paint6_linear_202_18" x1="575.189" y1="190.911" x2="424.287" y2="154.307" gradientUnits="userSpaceOnUse">
<stop stop-color="#440493" stop-opacity="0"/>
<stop offset="1" stop-color="#440493"/>
</linearGradient>
<linearGradient id="paint7_linear_202_18" x1="529.332" y1="218.653" x2="346.313" y2="161" gradientUnits="userSpaceOnUse">
<stop stop-color="#D504FF" stop-opacity="0"/>
<stop offset="1" stop-color="#D504FF"/>
</linearGradient>
<linearGradient id="paint8_linear_202_18" x1="415.747" y1="154.5" x2="341.582" y2="116.382" gradientUnits="userSpaceOnUse">
<stop stop-color="#FF69F0" stop-opacity="0"/>
<stop offset="1" stop-color="#FF69F0"/>
</linearGradient>
<linearGradient id="paint9_linear_202_18" x1="415.747" y1="83.4113" x2="751.187" y2="178.773" gradientUnits="userSpaceOnUse">
<stop stop-color="#00DB30" stop-opacity="0"/>
<stop offset="1" stop-color="#00DB30"/>
</linearGradient>
<linearGradient id="paint10_linear_202_18" x1="618.224" y1="192.645" x2="877.117" y2="230.951" gradientUnits="userSpaceOnUse">
<stop stop-color="#FFD700" stop-opacity="0"/>
<stop offset="1" stop-color="#FFD700"/>
</linearGradient>
<linearGradient id="paint11_linear_202_18" x1="715.582" y1="202.181" x2="888.683" y2="285.192" gradientUnits="userSpaceOnUse">
<stop stop-color="#E97B0C" stop-opacity="0"/>
<stop offset="1" stop-color="#E97B0C"/>
</linearGradient>
<linearGradient id="paint12_linear_202_18" x1="858.798" y1="196.113" x2="913.634" y2="242.829" gradientUnits="userSpaceOnUse">
<stop stop-color="#DB380F" stop-opacity="0"/>
<stop offset="1" stop-color="#DB380F"/>
</linearGradient>
</defs>
</svg>
